<svg xmlns="http://www.w3.org/2000/svg" viewBox="0 0 128 128" fill="none"><title>Scout</title><defs><radialGradient id="body" cx="25" cy="14" r="118" gradientUnits="userSpaceOnUse"><stop stop-color="#C8C4FF"/><stop offset="0.3" stop-color="#8876DC"/><stop offset="1" stop-color="#7066BD"/></radialGradient></defs><path d="M54 14c6-4 14-4 20 0l31 18c6 4 10 10 10 18v29c0 8-4 14-10 18l-31 18c-6 4-14 4-20 0L23 97c-6-4-10-10-10-18V50c0-8 4-14 10-18l31-18Z" fill="url(#body)"/><g fill="#FAF8F5"><rect x="48" y="46" width="11" height="20" rx="5.5"/><rect x="75" y="44" width="11" height="20" rx="5.5"/></g></svg>
